<?xml version="1.0" encoding="UTF-8"?>
<!DOCTYPE svg PUBLIC "-//W3C//DTD SVG 1.1//EN" "http://www.w3.org/Graphics/SVG/1.1/DTD/svg11.dtd">
<!-- Creator: CorelDRAW -->
<svg xmlns="http://www.w3.org/2000/svg" xml:space="preserve" width="2048px" height="2048px" style="shape-rendering:geometricPrecision; text-rendering:geometricPrecision; image-rendering:optimizeQuality; fill-rule:evenodd; clip-rule:evenodd"
viewBox="0 0 2048 2048"
 xmlns:xlink="http://www.w3.org/1999/xlink">
 <defs>
  <style type="text/css">
   <![CDATA[
    .fil2 {fill:none}
    .fil1 {fill:#212121}
    .fil0 {fill:#212121;fill-rule:nonzero}
   ]]>
  </style>
 </defs>
 <g id="Layer_x0020_1">
  <metadata id="CorelCorpID_0Corel-Layer"/>
  <g id="_250934592">
   <path id="_441532000" class="fil0" d="M673.928 459.374c6.28229,-16.4291 -1.94528,-34.8425 -18.3744,-41.1248 -16.4291,-6.28229 -34.8425,1.94528 -41.1248,18.3744 -0.368504,0.961418 -128.589,321.77 230.121,587.376 -358.711,265.604 -230.49,586.414 -230.121,587.376 6.28229,16.4291 24.6957,24.6567 41.1248,18.3744 16.4291,-6.28229 24.6567,-24.6957 18.3744,-41.1248 -0.328347,-0.8563 -118.518,-296.078 243.658,-537.767 3.55985,-2.30433 6.71575,-5.35512 9.21733,-9.10749 9.80316,-14.7047 5.82993,-34.5733 -8.87481,-44.3764l-17.7508 26.6256 17.7496 -26.6256c-362.6,-241.733 -244.328,-537.143 -243.999,-538z"/>
   <path id="_441531880" class="fil0" d="M1433.57 436.623c-6.28229,-16.4291 -24.6957,-24.6567 -41.1248,-18.3744 -16.4291,6.28229 -24.6567,24.6957 -18.3744,41.1248 0.328347,0.8563 118.6,296.267 -243.999,538l17.7496 26.6256 -17.7508 -26.6256c-14.7047,9.80316 -18.678,29.6717 -8.87481,44.3764 2.50158,3.75237 5.65748,6.80315 9.21733,9.10749 362.176,241.689 243.986,536.911 243.658,537.767 -6.28229,16.4291 1.94528,34.8425 18.3744,41.1248 16.4291,6.28229 34.8425,-1.94528 41.1248,-18.3744 0.368504,-0.961418 128.589,-321.772 -230.121,-587.376 358.711,-265.605 230.49,-586.414 230.121,-587.376z"/>
   <path id="_441531832" class="fil0" d="M582.062 255.998l883.876 0c26.4343,0 50.4414,10.7917 67.8249,28.1752 17.3835,17.3835 28.1752,41.3906 28.1752,67.8249l0 0.00236221c0,26.4319 -10.7917,50.4414 -28.1752,67.8249 -17.3835,17.3835 -41.3906,28.1752 -67.8249,28.1752l-883.876 0c-26.4343,0 -50.4414,-10.7917 -67.8249,-28.1752 -17.3835,-17.3835 -28.1752,-41.3929 -28.1752,-67.8249l0 -0.00236221c0,-26.4343 10.7917,-50.4414 28.1752,-67.8249 17.3835,-17.3835 41.3906,-28.1752 67.8249,-28.1752zm883.876 64.0016l-883.876 0c-8.76615,0 -16.761,3.61063 -22.5744,9.42402 -5.81339,5.81339 -9.42402,13.8083 -9.42402,22.5744l0 0.00236221c0,8.76615 3.61063,16.761 9.42402,22.5744 5.81339,5.81339 13.8083,9.42402 22.5744,9.42402l883.876 0c8.76615,0 16.761,-3.61063 22.5744,-9.42402 5.81339,-5.81339 9.42402,-13.8083 9.42402,-22.5744l0 -0.00236221c0,-8.76615 -3.61063,-16.761 -9.42402,-22.5744 -5.81339,-5.81339 -13.8083,-9.42402 -22.5744,-9.42402z"/>
   <path id="_441531784" class="fil0" d="M582.062 1600l883.876 0c26.4343,0 50.4414,10.7917 67.8249,28.1752 17.3835,17.3835 28.1752,41.3929 28.1752,67.8249l0 0.00236221c0,26.4343 -10.7917,50.4414 -28.1752,67.8249 -17.3835,17.3835 -41.3906,28.1752 -67.8249,28.1752l-883.876 0c-26.4343,0 -50.4414,-10.7917 -67.8249,-28.1752 -17.3835,-17.3835 -28.1752,-41.3906 -28.1752,-67.8249l0 -0.00236221c0,-26.4319 10.7917,-50.4414 28.1752,-67.8249 17.3835,-17.3835 41.3906,-28.1752 67.8249,-28.1752zm883.876 64.0016l-883.876 0c-8.76615,0 -16.761,3.61063 -22.5744,9.42402 -5.81339,5.81339 -9.42402,13.8083 -9.42402,22.5744l0 0.00236221c0,8.76615 3.61063,16.761 9.42402,22.5744 5.81339,5.81339 13.8083,9.42402 22.5744,9.42402l883.876 0c8.76615,0 16.761,-3.61063 22.5744,-9.42402 5.81339,-5.81339 9.42402,-13.8083 9.42402,-22.5744l0 -0.00236221c0,-8.76615 -3.61063,-16.761 -9.42402,-22.5744 -5.81339,-5.81339 -13.8083,-9.42402 -22.5744,-9.42402z"/>
   <circle id="_441531760" class="fil1" cx="754.803" cy="703.999" r="31.9996"/>
   <circle id="_441530824" class="fil1" cx="862.482" cy="703.999" r="31.9996"/>
   <circle id="_441531280" class="fil1" cx="970.161" cy="703.999" r="31.9996"/>
   <circle id="_441531184" class="fil1" cx="1077.84" cy="703.999" r="31.9996"/>
   <circle id="_441531376" class="fil1" cx="1185.52" cy="703.999" r="31.9996"/>
   <circle id="_441531208" class="fil1" cx="1293.2" cy="703.999" r="31.9996"/>
   <circle id="_441531136" class="fil1" cx="808.642" cy="799.999" r="31.9996"/>
   <circle id="_441530728" class="fil1" cx="916.321" cy="799.999" r="31.9996"/>
   <circle id="_441531040" class="fil1" cx="1024" cy="799.999" r="31.9996"/>
   <circle id="_441529984" class="fil1" cx="1131.68" cy="799.999" r="31.9996"/>
   <circle id="_441530512" class="fil1" cx="1239.36" cy="799.999" r="31.9996"/>
   <circle id="_441530368" class="fil1" cx="808.642" cy="799.999" r="31.9996"/>
   <circle id="_441530128" class="fil1" cx="916.321" cy="799.999" r="31.9996"/>
   <circle id="_441530536" class="fil1" cx="1024" cy="799.999" r="31.9996"/>
   <circle id="_441530200" class="fil1" cx="1131.68" cy="799.999" r="31.9996"/>
   <circle id="_441530584" class="fil1" cx="1239.36" cy="799.999" r="31.9996"/>
   <circle id="_441530680" class="fil1" cx="862.482" cy="895.999" r="31.9996"/>
   <circle id="_250933896" class="fil1" cx="970.161" cy="895.999" r="31.9996"/>
   <circle id="_250936368" class="fil1" cx="1077.84" cy="895.999" r="31.9996"/>
   <circle id="_250936464" class="fil1" cx="1185.52" cy="895.999" r="31.9996"/>
   <circle id="_250935960" class="fil1" cx="970.161" cy="991.999" r="31.9996"/>
   <circle id="_250935696" class="fil1" cx="1077.84" cy="991.999" r="31.9996"/>
   <circle id="_250935720" class="fil1" cx="1024" cy="1088" r="31.9996"/>
   <circle id="_250935864" class="fil1" cx="1024" cy="1184" r="31.9996"/>
   <circle id="_250936224" class="fil1" cx="1024" cy="1280" r="31.9996"/>
   <circle id="_250935600" class="fil1" cx="1293.2" cy="1536" r="31.9996"/>
   <circle id="_250936032" class="fil1" cx="1185.52" cy="1536" r="31.9996"/>
   <circle id="_250935984" class="fil1" cx="1077.84" cy="1536" r="31.9996"/>
   <circle id="_250934904" class="fil1" cx="970.161" cy="1536" r="31.9996"/>
   <circle id="_250935480" class="fil1" cx="862.482" cy="1536" r="31.9996"/>
   <circle id="_250934856" class="fil1" cx="754.803" cy="1536" r="31.9996"/>
   <circle id="_250935024" class="fil1" cx="1239.36" cy="1440" r="31.9996"/>
   <circle id="_250935264" class="fil1" cx="1131.68" cy="1440" r="31.9996"/>
   <circle id="_250935336" class="fil1" cx="1024" cy="1440" r="31.9996"/>
   <circle id="_250935288" class="fil1" cx="916.321" cy="1440" r="31.9996"/>
   <circle id="_250934784" class="fil1" cx="808.642" cy="1440" r="31.9996"/>
   <circle id="_250934424" class="fil1" cx="1239.36" cy="1440" r="31.9996"/>
   <circle id="_250934064" class="fil1" cx="1131.68" cy="1440" r="31.9996"/>
   <circle id="_250934136" class="fil1" cx="1024" cy="1440" r="31.9996"/>
   <circle id="_250934616" class="fil1" cx="916.321" cy="1440" r="31.9996"/>
   <circle id="_250934688" class="fil1" cx="808.642" cy="1440" r="31.9996"/>
  </g>
 </g>
 <rect class="fil2" width="2048" height="2048"/>
</svg>
