<svg xmlns="http://www.w3.org/2000/svg" viewBox="0 0 512 512"><title>Artboard 111</title><g id="Guarantee_Badge" data-name="Guarantee Badge"><polygon points="42.667 384 170.667 256 256 341.333 128 469.333 128 384 42.667 384" style="fill:#fcdf3f"/><polygon points="469.333 384 341.333 256 256 341.333 384 469.333 384 384 469.333 384" style="fill:#fbc700"/><path d="M409.96409,243.87767l-.13267.085.01387.0199a36.27833,36.27833,0,0,1-23.41208,56.47194l-.024.00426.027.12307a36.27832,36.27832,0,0,1-43.20669,43.20031l-.123-.02695v.00005a36.27833,36.27833,0,0,1-56.47829,23.41032l-.0007-.00048-.08432.13157a36.27833,36.27833,0,0,1-61.08753.00073l-.085-.13267-.0199.01388a36.27832,36.27832,0,0,1-56.47193-23.41209l-.00427-.024-.12307.027a36.27832,36.27832,0,0,1-43.20031-43.20669l.027-.123h-.00006a36.27832,36.27832,0,0,1-23.41032-56.47828l.00049-.00071-.13157-.08432a36.27832,36.27832,0,0,1-.00074-61.08752l.13267-.085-.01387-.0199a36.27832,36.27832,0,0,1,23.41208-56.47193l.024-.00427-.027-.12306a36.27833,36.27833,0,0,1,43.20669-43.20032l.123.027v-.00006a36.27833,36.27833,0,0,1,56.47829-23.41032l.0007.00049.08432-.13157a36.27833,36.27833,0,0,1,61.08753-.00074l.085.13268.0199-.01388a36.27833,36.27833,0,0,1,56.47194,23.41208l.00426.024.12307-.027a36.27833,36.27833,0,0,1,43.20031,43.2067l-.027.123h.00006a36.27833,36.27833,0,0,1,23.41032,56.47829l-.00049.0007.13158.08432A36.27833,36.27833,0,0,1,409.96409,243.87767Z" style="fill:#fcdf3f"/><path d="M345.96354,182.79036l-.13151-.08463v-.0013a36.27795,36.27795,0,0,0-23.41016-56.47787l.02735-.12239a36.27859,36.27859,0,0,0-43.20052-43.207l-.1237.026-.00391-.02344c-4.30208-24.22787-30.526-36.41667-51.65755-25.91927-.64193.83594-1.42318,1.47917-2.00651,2.38932l-.08463.13151c-.44011-.30729-.92709-.431-1.3737-.71614-.4388.27994-.91667.401-1.349.70312l-.02083.013-.08464-.13281c-.582-.90885-1.36328-1.55078-2.00391-2.38542-21.1302-10.487-47.345,1.70313-51.64713,25.92839l-.1224-.02735a36.2786,36.2786,0,0,0-43.207,43.20053l.02735.12239-.02474.00521A36.27764,36.27764,0,0,0,102.155,182.68359l.013.01953-.13151.08594a36.27785,36.27785,0,0,0,0,61.08724l.13151.08464a36.279,36.279,0,0,0,23.41015,56.47916l-.02734.1224a36.27859,36.27859,0,0,0,43.20052,43.207l.1237-.02734.00391.02343c4.30208,24.22917,30.526,36.418,51.65755,25.92058.64193-.83594,1.42318-1.47917,2.00651-2.38933l.08463-.13151c.44011.3073.92709.431,1.3737.71615.4388-.27995.91667-.401,1.349-.70312l.02083-.01433.08464.13281c.58333.90886,1.36328,1.55209,2.00521,2.38672,21.13021,10.48308,47.34505-1.70312,51.64583-25.92838l.1224.026a36.27775,36.27775,0,0,0,43.207-43.19922l-.02735-.1237.02474-.0039a36.279,36.279,0,0,0,23.41146-56.47266l-.013-.01953.13151-.08464A36.27786,36.27786,0,0,0,345.96354,182.79036Z" style="fill:#ffef7d"/><circle cx="256" cy="213.33333" r="117.33333" style="fill:#ffef7d"/><path d="M256,277.33333a21.26418,21.26418,0,0,1-15.08333-6.25L198.25,228.41667A21.33106,21.33106,0,0,1,228.41667,198.25L256,225.83333l48.91667-48.91666a21.331,21.331,0,0,1,30.16666,30.16666l-64,64A21.26418,21.26418,0,0,1,256,277.33333Z" style="fill:#fcdf3f"/><path d="M256,85.33333a128,128,0,1,1-128,128A128.14,128.14,0,0,1,256,85.33333ZM256,320A106.66667,106.66667,0,1,0,149.33333,213.33333,106.79223,106.79223,0,0,0,256,320Z" style="fill:#fcdf3f"/><path d="M256,85.33333a10.66667,10.66667,0,1,1,0,21.33334A106.66666,106.66666,0,1,0,256,320a10.66667,10.66667,0,1,1,0,21.33333,128,128,0,0,1,0-256Z" style="fill:#fbc700"/><path d="M256,256a21.26418,21.26418,0,0,1-15.08333-6.25L198.25,207.08333a21.33105,21.33105,0,1,1,30.16667-30.16666L256,204.5l48.91667-48.91667A21.33105,21.33105,0,0,1,335.08333,185.75l-64,64A21.26418,21.26418,0,0,1,256,256Z" style="fill:#4fcec3"/></g></svg>