<?xml version="1.0" encoding="utf-8"?>
<!-- Generator: Adobe Illustrator 23.0.6, SVG Export Plug-In . SVG Version: 6.00 Build 0)  -->
<svg version="1.1" id="Layer_1" xmlns="http://www.w3.org/2000/svg" xmlns:xlink="http://www.w3.org/1999/xlink" x="0px" y="0px"
	 viewBox="0 0 128 128" style="enable-background:new 0 0 128 128;" xml:space="preserve">
<style type="text/css">
	.st0{fill:#F7D6BF;}
	.st1{fill:#EABFA2;}
	.st2{fill:#2086A5;}
	.st3{fill:#172956;}
</style>
<title>POP UP</title>
<g>
	<g>
		<path class="st0" d="M99.1,34.4v28.1c0,2.9-2.4,5.3-5.3,5.3H57.7v11.3L46.4,67.8h-3.6c-2.9,0-5.3-2.4-5.3-5.3c0,0,0,0,0,0V34.4
			c0-2.9,2.4-5.3,5.3-5.3c0,0,0,0,0,0h51C96.8,29.1,99.1,31.5,99.1,34.4z"/>
		<path class="st1" d="M93.8,29.1h-51c-2.9,0-5.3,2.4-5.3,5.3c0,0,0,0,0,0v9.4h61.6v-9.4C99.1,31.5,96.8,29.1,93.8,29.1z"/>
		<path class="st2" d="M90.5,67.8v14.4c0,2.9-2.4,5.3-5.3,5.3c0,0,0,0,0,0h-5.5L68.3,98.9V87.5H34.1c-2.9,0-5.3-2.4-5.3-5.3
			c0,0,0,0,0,0V54.1c0-2.9,2.4-5.3,5.3-5.3c0,0,0,0,0,0h3.4v13.7c0,2.9,2.4,5.3,5.3,5.3c0,0,0,0,0,0h3.6l11.3,11.3V67.8H90.5z"/>
	</g>
	<path class="st3" d="M46.9,34.8c1.2,0,2.2,1,2.2,2.2c0,1.2-1,2.2-2.2,2.2c-1.2,0-2.2-1-2.2-2.2C44.7,35.9,45.7,34.8,46.9,34.8
		C46.9,34.8,46.9,34.8,46.9,34.8z M52.1,37.1c0,1.2,1,2.2,2.2,2.2c1.2,0,2.2-1,2.2-2.2c0-1.2-1-2.2-2.2-2.2
		C53.1,34.8,52.1,35.8,52.1,37.1C52.1,37.1,52.1,37.1,52.1,37.1z M59.4,37.1c0,1.2,1,2.2,2.2,2.2s2.2-1,2.2-2.2c0-1.2-1-2.2-2.2-2.2
		c0,0,0,0,0,0C60.4,34.8,59.4,35.9,59.4,37.1C59.4,37.1,59.4,37.1,59.4,37.1z M100.9,34.4v28.1c0,3.9-3.2,7-7,7h-1.6v12.7
		c0,3.9-3.1,7-7,7h-4.8l-10.8,10.8c-1.1,1.1-3,0.3-3-1.2v-9.6H34.1c-3.9,0-7-3.1-7-7V54.1c0-3.9,3.1-7,7-7h1.7V34.4c0-3.9,3.1-7,7-7
		h30.3c1,0,1.8,0.8,1.8,1.8s-0.8,1.8-1.8,1.8H42.8c-1.9,0-3.5,1.6-3.5,3.5V42h58.1v-7.6c0-1.9-1.6-3.5-3.5-3.5h-6
		c-1,0-1.8-0.8-1.8-1.8s0.8-1.8,1.8-1.8h6C97.7,27.4,100.9,30.5,100.9,34.4z M88.7,69.6H59.5v9.6c0,1.5-1.9,2.3-3,1.2L45.7,69.6
		h-2.9c-3.9,0-7-3.2-7-7V50.6h-1.7c-1.9,0-3.5,1.6-3.5,3.5v28.1c0,1.9,1.6,3.5,3.5,3.5h34.2c1,0,1.8,0.8,1.8,1.8v7.1l8.3-8.3
		c0.3-0.3,0.8-0.5,1.2-0.5h5.5c1.9,0,3.5-1.6,3.5-3.5V69.6z M97.4,62.5v-17H39.3v17c0,1.9,1.6,3.5,3.5,3.5h3.6
		c0.5,0,0.9,0.2,1.2,0.5l8.3,8.3v-7.1c0-1,0.8-1.8,1.8-1.8h36.1C95.8,66.1,97.4,64.5,97.4,62.5L97.4,62.5z M80.8,30.9h0.8
		c1,0,1.8-0.8,1.8-1.8s-0.8-1.8-1.8-1.8h-0.8c-1,0-1.8,0.8-1.8,1.8S79.8,30.9,80.8,30.9z"/>
</g>
</svg>
