<svg data-v-423bf9ae="" xmlns="http://www.w3.org/2000/svg" viewBox="0 0 260 90" class="iconLeft"><!----><!----><!----><g data-v-423bf9ae="" id="e3565716-6d1e-4542-9586-a8a7c9660975" fill="white" transform="matrix(4.709576222757963,0,0,4.709576222757963,104.16012268278874,1.8131884697778489)"><path d="M1.24 12.61L1.24 2.95L4.27 2.95L4.27 2.95Q5.26 2.95 6.04 3.28L6.04 3.28L6.04 3.28Q6.81 3.62 7.25 4.27L7.25 4.27L7.25 4.27Q7.68 4.92 7.68 5.80L7.68 5.80L7.68 5.80Q7.68 6.69 7.25 7.31L7.25 7.31L7.25 7.31Q6.81 7.94 6.04 8.27L6.04 8.27L6.04 8.27Q5.26 8.60 4.27 8.60L4.27 8.60L2.97 8.60L2.97 12.61L1.24 12.61ZM2.97 6.98L4.27 6.98L4.27 6.98Q5.15 6.98 5.55 6.69L5.55 6.69L5.55 6.69Q5.96 6.39 5.96 5.80L5.96 5.80L5.96 5.80Q5.96 4.57 4.27 4.57L4.27 4.57L2.97 4.57L2.97 6.98ZM8.97 12.61L8.97 5.78L10.60 5.78L10.60 6.92L10.60 6.92Q10.81 6.32 11.32 5.98L11.32 5.98L11.32 5.98Q11.83 5.63 12.43 5.63L12.43 5.63L12.43 5.63Q12.78 5.63 13.11 5.76L13.11 5.76L13.11 5.76Q13.44 5.88 13.68 6.13L13.68 6.13L12.92 7.49L12.92 7.49Q12.57 7.26 12.17 7.26L12.17 7.26L12.17 7.26Q11.76 7.26 11.40 7.52L11.40 7.52L11.40 7.52Q11.03 7.79 10.81 8.34L10.81 8.34L10.81 8.34Q10.58 8.89 10.58 9.72L10.58 9.72L10.58 12.61L8.97 12.61ZM17.40 12.74L17.40 12.74Q16.37 12.74 15.57 12.26L15.57 12.26L15.57 12.26Q14.77 11.78 14.33 10.96L14.33 10.96L14.33 10.96Q13.90 10.14 13.90 9.17L13.90 9.17L13.90 9.17Q13.90 8.21 14.33 7.40L14.33 7.40L14.33 7.40Q14.77 6.59 15.57 6.11L15.57 6.11L15.57 6.11Q16.37 5.63 17.40 5.63L17.40 5.63L17.40 5.63Q18.42 5.63 19.22 6.11L19.22 6.11L19.22 6.11Q20.02 6.59 20.46 7.40L20.46 7.40L20.46 7.40Q20.90 8.21 20.90 9.17L20.90 9.17L20.90 9.17Q20.90 10.14 20.46 10.96L20.46 10.96L20.46 10.96Q20.02 11.78 19.22 12.26L19.22 12.26L19.22 12.26Q18.42 12.74 17.40 12.74L17.40 12.74ZM17.40 11.31L17.40 11.31Q18.00 11.31 18.40 11.02L18.40 11.02L18.40 11.02Q18.79 10.73 18.98 10.24L18.98 10.24L18.98 10.24Q19.16 9.76 19.16 9.17L19.16 9.17L19.16 9.17Q19.16 8.26 18.73 7.67L18.73 7.67L18.73 7.67Q18.29 7.08 17.40 7.08L17.40 7.08L17.40 7.08Q16.80 7.08 16.40 7.36L16.40 7.36L16.40 7.36Q16.00 7.64 15.82 8.11L15.82 8.11L15.82 8.11Q15.63 8.59 15.63 9.17L15.63 9.17L15.63 9.17Q15.63 9.76 15.82 10.24L15.82 10.24L15.82 10.24Q16.00 10.73 16.40 11.02L16.40 11.02L16.40 11.02Q16.80 11.31 17.40 11.31L17.40 11.31ZM22.65 12.61L22.65 7.17L21.40 7.17L21.40 5.78L22.66 5.78L22.66 4.86L22.66 4.86Q22.66 4.22 22.96 3.75L22.96 3.75L22.96 3.75Q23.26 3.29 23.75 3.05L23.75 3.05L23.75 3.05Q24.25 2.80 24.84 2.80L24.84 2.80L24.84 2.80Q25.45 2.80 26.08 3.08L26.08 3.08L25.53 4.46L25.53 4.46Q25.25 4.29 25.00 4.29L25.00 4.29L25.00 4.29Q24.73 4.29 24.55 4.47L24.55 4.47L24.55 4.47Q24.37 4.66 24.37 5.03L24.37 5.03L24.37 5.78L25.96 5.78L25.96 7.17L24.37 7.17L24.37 12.61L22.65 12.61ZM27.34 15.54L28.59 12.42L25.92 5.78L27.75 5.78L29.48 10.52L31.23 5.78L33.06 5.78L29.16 15.54L27.34 15.54Z"></path></g><!----><g data-v-423bf9ae="" id="1b2708ad-3546-44d6-961e-167ed8f9f367" transform="matrix(2.8125,0,0,2.8125,0,0)" stroke="none" fill="white"><path d="M0 16.024L15.976 32 32 15.976 16.024 0 0 16.024zm15.989 7.323l-7.336-7.336 14.694-.022-7.358 7.358z"></path></g><!----></svg>