<svg xmlns="http://www.w3.org/2000/svg" viewBox="0 0 48 48"><defs><style>.cls-1{fill:#201602;}</style></defs><title>Asset 47ldpi</title><g id="Layer_2" data-name="Layer 2"><g id="layer_1-2" data-name="layer 1"><path class="cls-1" d="M47,48H1a1,1,0,0,1-1-1V1A1,1,0,0,1,1,0H47a1,1,0,0,1,1,1V47A1,1,0,0,1,47,48ZM2,46H46V2H2Z"/><rect class="cls-1" x="34" y="25" width="8" height="2"/><rect class="cls-1" x="22" y="25" width="10" height="2"/><rect class="cls-1" x="31" y="30" width="7" height="2"/><rect class="cls-1" x="22" y="30" width="7" height="2"/><rect class="cls-1" x="36" y="35" width="6" height="2"/><rect class="cls-1" x="22" y="35" width="12" height="2"/><rect class="cls-1" x="22" y="40" width="9" height="2"/><path class="cls-1" d="M18,42H7a1,1,0,0,1-1-1V26a1,1,0,0,1,1-1H18a1,1,0,0,1,1,1V41A1,1,0,0,1,18,42ZM8,40h9V27H8Z"/><path class="cls-1" d="M41,22H7a1,1,0,0,1-1-1V15a1,1,0,0,1,1-1H41a1,1,0,0,1,1,1v6A1,1,0,0,1,41,22ZM8,20H40V16H8Z"/><rect class="cls-1" x="4" y="4" width="2" height="2"/><rect class="cls-1" x="8" y="4" width="2" height="2"/><rect class="cls-1" x="12" y="4" width="2" height="2"/><rect class="cls-1" x="1" y="8" width="46" height="2"/></g></g></svg>