<?xml version="1.0" encoding="utf-8"?>
<!-- Generator: Adobe Illustrator 24.3.0, SVG Export Plug-In . SVG Version: 6.00 Build 0)  -->
<svg version="1.1" id="Layer_1" xmlns="http://www.w3.org/2000/svg" xmlns:xlink="http://www.w3.org/1999/xlink" x="0px" y="0px"
	 viewBox="0 0 80 80" enable-background="new 0 0 80 80" xml:space="preserve">
<rect x="10.207" y="10.561" fill="#667BBC" width="59.25" height="9.75"/>
<rect x="16.874" y="27.561" fill="#FFCC43" width="45.667" height="25.667"/>
<path fill="#131731" d="M9.07,9.287v59.171h61.668V9.287H9.07z M67.737,65.458H12.071V22.9h55.666V65.458z M67.737,19.9H12.071
	v-7.611h55.666V19.9z M15.846,18.627c1.43,0,2.592-1.158,2.592-2.592c0-1.433-1.161-2.591-2.592-2.593
	c-1.434,0.002-2.59,1.16-2.592,2.593C13.254,17.469,14.415,18.627,15.846,18.627z M23.336,18.627c1.432,0,2.592-1.158,2.592-2.592
	c-0.002-1.433-1.159-2.591-2.592-2.593c-1.432,0.002-2.592,1.16-2.592,2.593C20.744,17.469,21.906,18.627,23.336,18.627z
	 M30.826,18.627c1.43,0,2.59-1.158,2.592-2.592c-0.002-1.433-1.161-2.591-2.592-2.593c-1.434,0.002-2.592,1.16-2.592,2.593
	C28.234,17.469,29.394,18.627,30.826,18.627z M18.37,54.571h43.117c1.775,0,3.213-1.437,3.213-3.213V29.275
	c0-1.776-1.438-3.213-3.213-3.213H18.37c-1.774,0-3.212,1.436-3.212,3.213l-0.002,22.083C15.157,53.134,16.595,54.571,18.37,54.571z
	 M18.156,29.275c0-0.116,0.096-0.212,0.214-0.214l43.117,0.002c0.119,0,0.214,0.096,0.214,0.212v22.083
	c0,0.116-0.096,0.212-0.214,0.214L18.37,51.57c-0.118,0-0.214-0.096-0.214-0.212V29.275z"/>
<g>
	<path fill="#667BBC" d="M62.841,60.512l-45.872-0.022c-0.83,0-1.499-0.672-1.499-1.5l0,0c0-0.829,0.672-1.501,1.499-1.499l0,0
		l45.874,0.023c0.828,0,1.5,0.671,1.498,1.499l0,0c0,0.828-0.67,1.499-1.496,1.499l0,0C62.843,60.512,62.842,60.512,62.841,60.512
		L62.841,60.512z"/>
</g>
</svg>
