<svg xmlns="http://www.w3.org/2000/svg" version="1.1" id="Capa_1" x="0" y="0" viewBox="0 0 576.6 558.9" style="enable-background:new 0 0 576.6 558.9"><style>.st1{fill:#d69da8}.st2{fill:#eaadbc}</style><path style="fill:#ffeee3" d="M0 0h576.6v558.9H0z"/><path class="st1" d="M258.8 30.1c-11.2-7.5-27.6-3.1-38.5 9.8-9.7-13.6-25.6-19.4-37.3-12.9-13 7.1-16 26.5-6.7 43.2 9.2 16.7 44.1 41.3 44.1 41.3s30.7-21.9 41.4-37.8c10.5-15.7 9.2-35.3-3-43.6z"/><path class="st2" d="M197.8 35c4.3 4.3-1.3 6.2-5.9 10.8-4.6 4.6-6.5 10.2-10.8 5.9-4.3-4.3-4-11.4.6-16 4.7-4.7 11.9-5 16.1-.7z"/><path class="st1" d="M527.3 31.2c-11.2-7.5-27.6-3.1-38.5 9.8-9.7-13.6-25.6-19.4-37.3-12.9-13 7.1-16 26.5-6.7 43.2 9.2 16.7 44.1 41.3 44.1 41.3s30.7-21.9 41.4-37.8c10.6-15.8 9.3-35.4-3-43.6z"/><path class="st2" d="M466.4 36c4.3 4.3-1.3 6.2-5.9 10.8S454 57 449.8 52.7c-4.3-4.3-4-11.4.6-16s11.7-4.9 16-.7z"/><path class="st1" d="M258.8 298.2c-11.2-7.5-27.6-3.1-38.5 9.8-9.7-13.6-25.6-19.4-37.3-12.9-13 7.1-16 26.5-6.7 43.2 9.2 16.7 44.1 41.3 44.1 41.3s30.7-21.9 41.4-37.8c10.5-15.8 9.2-35.3-3-43.6z"/><path class="st2" d="M197.8 303.1c4.3 4.3-1.3 6.2-5.9 10.8-4.6 4.6-6.5 10.2-10.8 5.9-4.3-4.3-4-11.4.6-16 4.7-4.7 11.9-5 16.1-.7z"/><path class="st1" d="M393.1 164.4c-11.2-7.5-27.6-3.1-38.5 9.8-9.7-13.6-25.6-19.4-37.3-12.9-13 7.1-16 26.5-6.7 43.2 9.2 16.7 44.1 41.3 44.1 41.3s30.7-21.9 41.4-37.8c10.5-15.8 9.2-35.3-3-43.6z"/><path class="st2" d="M332.1 169.3c4.3 4.3-1.3 6.2-5.9 10.8-4.6 4.6-6.5 10.2-10.8 5.9-4.3-4.3-4-11.4.6-16 4.7-4.7 11.8-5 16.1-.7z"/><path class="st1" d="M124.3 164.4c-11.2-7.5-27.6-3.1-38.5 9.8-9.7-13.6-25.6-19.4-37.3-12.9-13 7.1-16 26.5-6.7 43.2 9.2 16.7 44.1 41.3 44.1 41.3s30.7-21.9 41.4-37.8c10.6-15.8 9.3-35.3-3-43.6z"/><path class="st2" d="M63.4 169.3c4.3 4.3-1.3 6.2-5.9 10.8-4.6 4.6-6.5 10.2-10.8 5.9-4.3-4.3-4-11.4.6-16 4.6-4.7 11.8-5 16.1-.7z"/><path class="st1" d="M393.1 431.9c-11.2-7.5-27.6-3.1-38.5 9.8-9.7-13.6-25.6-19.4-37.3-12.9-13 7.1-16 26.5-6.7 43.2 9.2 16.7 44.1 41.3 44.1 41.3s30.7-21.9 41.4-37.8c10.5-15.7 9.2-35.3-3-43.6z"/><path class="st2" d="M332.1 436.8c4.3 4.3-1.3 6.2-5.9 10.8-4.6 4.6-6.5 10.2-10.8 5.9-4.3-4.3-4-11.4.6-16 4.7-4.7 11.8-5 16.1-.7z"/><path class="st1" d="M124.3 431.9c-11.2-7.5-27.6-3.1-38.5 9.8-9.7-13.6-25.6-19.4-37.3-12.9-13 7.1-16 26.5-6.7 43.2 9.2 16.7 44.1 41.3 44.1 41.3s30.7-21.9 41.4-37.8c10.6-15.7 9.3-35.3-3-43.6z"/><path class="st2" d="M63.4 436.8c4.3 4.3-1.3 6.2-5.9 10.8-4.6 4.6-6.5 10.2-10.8 5.9-4.3-4.3-4-11.4.6-16 4.6-4.7 11.8-5 16.1-.7z"/><path class="st1" d="M527.3 299.2c-11.2-7.5-27.6-3.1-38.5 9.8-9.7-13.6-25.6-19.4-37.3-12.9-13 7.1-16 26.5-6.7 43.2 9.2 16.7 44.1 41.3 44.1 41.3s30.7-21.9 41.4-37.8c10.6-15.7 9.3-35.3-3-43.6z"/><path class="st2" d="M466.4 304.1c4.3 4.3-1.3 6.2-5.9 10.8-4.6 4.6-6.5 10.2-10.8 5.9-4.3-4.3-4-11.4.6-16 4.7-4.7 11.8-5 16.1-.7z"/><path style="fill:none" d="M0 24.4h576.6v534.5H0z"/></svg>