<svg id="icons" xmlns="http://www.w3.org/2000/svg" viewBox="0 0 340 340"><path d="M229.18,141.882a25.859,25.859,0,0,1-25.86,25.859c-34.232-1.183-34.223-50.541,0-51.719A25.86,25.86,0,0,1,229.18,141.882Z" style="fill:#ffd071"/><path d="M81.353,283.392s24.965,18.724,46.043,30.336a15.072,15.072,0,0,0,16.138-1.059l2.842-2.072a7.091,7.091,0,0,0,1.383-10.143,152.193,152.193,0,0,1-22.117-38.365Z" style="fill:#4e73a8"/><path d="M82.973,163.959s30.356-60.043,55.066-100.182a9.11,9.11,0,0,1,14.987-.744L267.635,212.764A9.11,9.11,0,0,1,263.142,227c-24.13,7.6-78.875,23.729-120.485,27.7C142.657,254.7,105.581,242.513,82.973,163.959Z" style="fill:#fff"/><path d="M22.876,241.215C24.988,253.852,35.6,274.2,50.953,283.326c16.907,9.221,52.768,1.151,91.7-28.626,0,0-41.5-45.146-59.684-90.741,0,0-30.534,22.17-51,46.594a39.175,39.175,0,0,0-6.925,11.934A40.559,40.559,0,0,0,22.876,241.215Z" style="fill:#f47676"/><path d="M54.391,238.129c-3.892.095-5.531-5.344-2.132-7.388l9.676-6.081a4,4,0,0,1,4.257,6.774l-9.676,6.081A3.982,3.982,0,0,1,54.391,238.129Z" style="fill:#fff"/><path d="M61.672,249.714c-3.892.095-5.531-5.345-2.132-7.388l9.675-6.08a4,4,0,0,1,4.257,6.774L63.8,249.1A3.976,3.976,0,0,1,61.672,249.714Z" style="fill:#fff"/><path d="M68.952,261.3c-3.892.094-5.531-5.344-2.132-7.388l9.676-6.081a4,4,0,0,1,4.257,6.774l-9.676,6.081A3.982,3.982,0,0,1,68.952,261.3Z" style="fill:#fff"/><path d="M224.611,160.559a4.026,4.026,0,0,1-3.288-6.273,21.872,21.872,0,0,0-25.28-33.024c-4.974,1.673-7.6-5.712-2.664-7.543,18.9-7.011,40.162,7.95,39.8,28.163C233.482,146.458,230.151,160.545,224.611,160.559Z" style="fill:#383a49"/><path d="M134.6,319.568a18.921,18.921,0,0,1-9.134-2.335c-17.789-9.8-38.457-24.716-44.367-29.054a4,4,0,0,1,4.733-6.449c5.813,4.265,26.127,18.926,43.494,28.5,5.4,2.915,10.323.816,14.694-2.86a3.106,3.106,0,0,0,.606-4.424,158.559,158.559,0,0,1-15.1-22.978c-2.417-4.654,4.467-8.393,7.043-3.8a150.3,150.3,0,0,0,14.323,21.8,10.993,10.993,0,0,1,2.3,8.386c-.43,4.413-3.826,7.274-7.305,9.547A19.177,19.177,0,0,1,134.6,319.568Z" style="fill:#383a49"/><path d="M142.652,258.7c-5-.086-5.39-7.419-.376-7.981,41.738-3.989,97.589-20.588,119.665-27.54a5.109,5.109,0,0,0,2.517-7.984L149.85,65.465a5.111,5.111,0,0,0-8.405.408c-24.337,39.534-54.6,99.292-54.9,99.891-2.394,4.638-9.461,1.131-7.14-3.61.3-.6,30.715-60.653,55.229-100.474,4.459-7.7,16.356-8.3,21.57-1.077L270.811,210.332a13.111,13.111,0,0,1-6.468,20.478C241.968,237.839,185.163,254.762,142.652,258.7Z" style="fill:#383a49"/><path d="M67.579,290.981c-7.133,0-13.418-1.35-18.541-4.144-16.287-9.578-27.679-30.645-30.131-45.121h0a44.156,44.156,0,0,1,10-33.732c21.1-24.205,52.358-50.133,55.181-47.869a4.007,4.007,0,0,1,2.6,2.362c17.7,44.363,58.5,89.07,58.914,89.516a4.028,4.028,0,0,1-.515,5.885C117.316,279.116,88.726,290.981,67.579,290.981ZM81.261,170.257c-8.926,6.86-30.681,24.317-46.226,42.866a36.147,36.147,0,0,0-8.191,27.591h0c1.928,11.32,11.854,30.611,26.025,39.1,13.747,7.5,45.61,2.477,83.9-25.7C127.268,243.281,97.48,207.73,81.261,170.257Z" style="fill:#383a49"/><path d="M214.753,44.665a4,4,0,0,0,5.479-1.408l9.92-16.79a4,4,0,1,0-6.887-4.07l-9.921,16.79A4,4,0,0,0,214.753,44.665Z" style="fill:#383a49"/><path d="M316.927,157.064l-19.347,2.449c-4.907.671-4.426,7.928.5,7.969a3.971,3.971,0,0,0,.508-.032L317.932,165C323.129,164.252,322.163,156.5,316.927,157.064Z" style="fill:#383a49"/><path d="M303.087,67.907a4,4,0,0,0-5.631-.537L282.419,79.789a4,4,0,1,0,5.1,6.168L302.55,73.538A4,4,0,0,0,303.087,67.907Z" style="fill:#383a49"/><path d="M250.225,230.961,151.006,97.856a4.423,4.423,0,0,0-7.093,5.287l97.264,130.482C244.356,232.705,247.385,231.812,250.225,230.961Z" style="fill:#383a49"/></svg>